HIERARCHY
ROOT Hips
{
	OFFSET 0.000000 0.000000 0.000000
	CHANNELS 6 Xposition Yposition Zposition Zrotation Yrotation Xrotation 
	JOINT LeftUpLeg_virtual
	{
		OFFSET 0.000000 0.000000 0.000000
		CHANNELS 3 Zrotation Yrotation Xrotation
		JOINT LeftUpLeg
		{
			OFFSET 10.205400 -3.823500 0.155100
			CHANNELS 3 Zrotation Yrotation Xrotation
			JOINT LeftLeg
			{
				OFFSET 0.708757 -12.982077 0.567790
				CHANNELS 3 Zrotation Yrotation Xrotation
				JOINT LeftFoot
				{
					OFFSET -0.708756 -10.717838 -2.184338
					CHANNELS 3 Zrotation Yrotation Xrotation
					JOINT LeftToeBase
					{
						OFFSET 0.108149 -7.191104 7.560241
						CHANNELS 3 Zrotation Yrotation Xrotation
						End Site
						{
							OFFSET 0.000000 0.000000 0.000000
						}
					}
				}
			}
		}
	}
	JOINT RightUpLeg_virtual
	{
		OFFSET 0.000000 0.000000 0.000000
		CHANNELS 3 Zrotation Yrotation Xrotation
		JOINT RightUpLeg
		{
			OFFSET -10.205400 -3.823500 0.005500
			CHANNELS 3 Zrotation Yrotation Xrotation
			JOINT RightLeg
			{
				OFFSET -0.708756 -12.982134 0.610632
				CHANNELS 3 Zrotation Yrotation Xrotation
				JOINT RightFoot
				{
					OFFSET 0.708754 -10.717769 -1.945823
					CHANNELS 3 Zrotation Yrotation Xrotation
					JOINT RightToeBase
					{
						OFFSET -0.108140 -7.191069 7.372968
						CHANNELS 3 Zrotation Yrotation Xrotation
						End Site
						{
							OFFSET 0.000000 0.000000 0.000000
						}
					}
				}
			}
		}
	}
	JOINT Spine_virtual
	{
		OFFSET 0.000000 0.000000 0.000000
		CHANNELS 3 Zrotation Yrotation Xrotation
		JOINT Spine
		{
			OFFSET 0.000000 6.876099 0.125700
			CHANNELS 3 Zrotation Yrotation Xrotation
			JOINT Spine1
			{
				OFFSET 0.000000 8.022060 0.146608
				CHANNELS 3 Zrotation Yrotation Xrotation
				JOINT Spine2
				{
					OFFSET 0.000000 9.168068 0.167552
					CHANNELS 3 Zrotation Yrotation Xrotation
					JOINT Neck_virtual
					{
						OFFSET 0.000000 0.000000 0.000000
						CHANNELS 3 Zrotation Yrotation Xrotation
						JOINT Neck
						{
							OFFSET 0.000000 10.314075 0.188496
							CHANNELS 3 Zrotation Yrotation Xrotation
							JOINT Head
							{
								OFFSET 0.000000 7.643700 -2.377400
								CHANNELS 3 Zrotation Yrotation Xrotation
								End Site
								{
									OFFSET 0.000000 0.000000 0.000000
								}
							}
						}
					}
					JOINT LeftShoulder_virtual
					{
						OFFSET 0.000000 0.000000 0.000000
						CHANNELS 3 Zrotation Yrotation Xrotation
						JOINT LeftShoulder
						{
							OFFSET 4.392200 8.824978 0.174984
							CHANNELS 3 Zrotation Yrotation Xrotation
							JOINT LeftArm
							{
								OFFSET 8.771219 -2.981674 -0.026999
								CHANNELS 3 Zrotation Yrotation Xrotation
								JOINT LeftForeArm
								{
									OFFSET 8.512804 0.000000 -0.000000
									CHANNELS 3 Zrotation Yrotation Xrotation
									JOINT LeftHand
									{
										OFFSET 18.484802 0.000000 -0.000000
										CHANNELS 3 Zrotation Yrotation Xrotation
										End Site
										{
											OFFSET 0.000000 0.000000 0.000000
										}
									}
								}
							}
						}
					}
					JOINT RightShoulder_virtual
					{
						OFFSET 0.000000 0.000000 0.000000
						CHANNELS 3 Zrotation Yrotation Xrotation
						JOINT RightShoulder
						{
							OFFSET -4.392200 8.824993 0.141379
							CHANNELS 3 Zrotation Yrotation Xrotation
							JOINT RightArm
							{
								OFFSET -8.771282 -2.981682 -0.094208
								CHANNELS 3 Zrotation Yrotation Xrotation
								JOINT RightForeArm
								{
									OFFSET -8.494598 0.000000 0.000000
									CHANNELS 3 Zrotation Yrotation Xrotation
									JOINT RightHand
									{
										OFFSET -18.483803 0.000000 0.000001
										CHANNELS 3 Zrotation Yrotation Xrotation
										End Site
										{
											OFFSET 0.000000 0.000000 0.000000
										}
									}
								}
							}
						}
					}
				}
			}
		}
	}
}
MOTION
Frames: 10
Frame Time: 0.033333
-3.122394 26.540291 -0.050549 179.992314 2.505170 -179.841381 2.453118 -6.497929 11.137659 -1.839414 0.903545 -82.344686 12.644799 1.955301 76.824247 -9.089683 -3.212914 2.613096 0.000000 0.000000 0.000000 6.452046 -3.563429 10.786759 -7.909920 -13.261736 -84.515272 -2.878432 -1.927109 79.262870 -0.003726 10.345019 6.261370 0.000000 0.000000 0.000000 3.654617 -1.541313 14.589170 2.115584 -0.717742 11.486485 -1.284320 -0.548564 13.105143 -0.012278 0.017230 -0.059906 -0.855255 0.388028 14.738491 3.703567 -0.763156 12.065568 0.000000 0.000000 0.000000 0.331310 1.079996 10.606725 -11.135998 -14.618801 2.874810 -37.533194 -4.899446 -18.479873 -0.586567 -51.414246 5.017769 0.000000 0.000000 0.000000 -3.233975 2.211559 10.222790 20.023306 11.951174 -4.910435 48.112464 -1.096412 -2.913715 -6.553170 52.520651 -10.221442 0.000000 0.000000 0.000000 
-3.177104 25.790714 0.437682 179.943547 1.422320 -179.857923 2.486340 -7.102283 8.789590 -1.390510 1.658788 -83.276467 12.952639 2.990787 79.493327 -8.859858 -3.906312 3.269768 0.000000 0.000000 0.000000 5.897788 -4.008628 8.250683 -7.588808 -13.275187 -85.143294 -3.049495 -1.586535 82.092412 -0.243067 10.380358 6.425382 0.000000 0.000000 0.000000 3.352792 -1.840799 12.038233 1.859499 -0.673179 10.204131 -1.253315 -0.438571 13.231065 -0.003444 0.002624 0.018321 -0.830242 0.447030 15.131623 3.736498 -0.669451 12.901075 0.000000 0.000000 0.000000 0.386861 1.129982 10.880221 -11.697765 -14.397540 3.109796 -39.383397 -3.675429 -19.284971 -0.987363 -54.008840 5.160808 0.000000 0.000000 0.000000 -3.120265 2.244514 10.536869 20.469578 12.185534 -4.427461 49.380325 -2.150474 -1.579786 -6.362804 50.580553 -9.567720 0.000000 0.000000 0.000000 
-3.263048 25.189342 0.865709 -179.857623 0.645567 -179.951729 2.399069 -7.643518 6.469719 -1.249315 2.734547 -83.702029 13.476492 3.824794 81.879966 -8.461658 -4.241734 3.521207 0.000000 0.000000 0.000000 5.766810 -4.338347 5.881058 -7.427035 -13.098788 -85.222907 -3.174660 -0.805659 84.222065 -0.091453 10.428510 6.718495 0.000000 0.000000 0.000000 3.206240 -2.054092 9.512897 1.683169 -0.589240 8.743676 -1.257929 -0.287715 13.304111 -0.000930 -0.002176 -0.008344 -0.927073 0.657268 15.499542 3.518222 -0.480099 13.640481 0.000000 0.000000 0.000000 0.343998 1.259276 11.179344 -12.126619 -13.943567 3.399584 -41.742404 -2.404493 -20.117257 -1.406427 -57.084331 5.312253 0.000000 0.000000 0.000000 -3.132903 2.347064 10.829767 21.039196 12.342345 -3.937634 50.311112 -3.395825 0.200507 -6.381415 48.840289 -9.084969 0.000000 0.000000 0.000000 
-3.364349 24.774347 1.196520 -179.733833 0.137409 179.939708 2.170399 -7.870331 4.490352 -1.313195 4.079541 -83.858508 13.709493 4.271158 83.849841 -8.175613 -4.707508 3.739194 0.000000 0.000000 0.000000 5.597843 -4.458418 3.774147 -7.745871 -12.746047 -84.705588 -3.340626 -0.098663 85.493205 0.475773 10.342546 7.052753 0.000000 0.000000 0.000000 2.968269 -2.255535 7.197030 1.438617 -0.599886 6.960618 -1.302366 -0.065778 13.410817 -0.067795 0.047129 -0.016300 -0.995909 0.773666 15.820193 3.077785 -0.197922 14.346408 0.000000 0.000000 0.000000 0.312258 1.458592 11.425812 -12.392789 -13.240917 3.587173 -44.341991 -0.950513 -20.419814 -1.873674 -60.822971 5.555734 0.000000 0.000000 0.000000 -3.138524 2.432416 11.110698 21.633145 12.295598 -3.606939 50.959587 -5.025691 1.940338 -6.159668 47.390591 -8.309936 0.000000 0.000000 0.000000 
-3.472094 24.525555 1.417500 -179.507904 0.013804 179.877185 1.810919 -8.021542 2.805602 -1.495080 5.307356 -83.571032 13.781837 4.509318 85.336302 -7.982831 -5.233971 4.247453 0.000000 0.000000 0.000000 5.533865 -4.285452 2.010269 -8.210621 -12.108807 -83.599972 -3.441430 0.413875 86.157447 0.941388 10.178370 7.360427 0.000000 0.000000 0.000000 2.802939 -2.163077 5.047186 1.264761 -0.475074 5.112329 -1.362720 -0.006382 13.411285 -0.066806 0.011496 -0.090757 -1.249650 1.064172 16.117706 2.307796 0.033318 14.747902 0.000000 0.000000 0.000000 0.186089 1.663920 11.698030 -12.492133 -12.411943 3.956396 -46.933638 0.497069 -19.992705 -2.164541 -65.231319 5.676204 0.000000 0.000000 0.000000 -3.234555 2.617719 11.574277 22.169787 12.155383 -3.239018 51.251564 -6.991853 3.266278 -6.173983 46.304414 -7.825132 0.000000 0.000000 0.000000 
-3.544435 24.385765 1.568485 -179.341684 0.163541 179.861011 1.623619 -8.118214 1.171019 -1.674952 6.569192 -83.002959 13.741682 4.513415 86.427438 -7.715036 -5.671388 4.889400 0.000000 0.000000 0.000000 5.448100 -3.971837 0.286204 -8.565411 -11.396989 -82.155237 -3.514788 0.758909 86.463542 1.244466 9.870261 7.269363 0.000000 0.000000 0.000000 2.574002 -2.116229 3.008081 1.049408 -0.418823 3.441443 -1.418570 0.165917 13.436853 -0.058002 0.071899 -0.034970 -1.424301 1.005461 16.303325 1.406577 0.541141 14.944953 0.000000 0.000000 0.000000 0.113050 1.782061 12.026461 -12.400091 -11.634562 4.136369 -49.061727 1.911006 -18.992220 -3.558431 -69.927463 6.959997 0.000000 0.000000 0.000000 -3.248427 2.668868 11.927510 22.716581 11.757181 -2.991854 51.384866 -9.078051 4.204195 -6.422948 45.750615 -7.654055 0.000000 0.000000 0.000000 
-3.563788 24.292131 1.713244 -179.183347 0.420365 179.739679 1.602465 -8.061788 -0.434215 -1.553472 7.657616 -82.154178 13.605504 4.356646 87.185616 -7.370511 -5.999309 5.594426 0.000000 0.000000 0.000000 5.394099 -3.815972 -1.454642 -8.680420 -10.660581 -80.363514 -3.621672 0.924811 86.644583 1.398767 9.727045 6.954183 0.000000 0.000000 0.000000 2.415933 -2.053547 1.130250 0.836883 -0.449645 2.156966 -1.612539 0.219759 13.501732 -0.057982 0.015161 -0.060056 -1.588540 1.282932 16.569904 0.363953 0.812377 15.035639 0.000000 0.000000 0.000000 0.166026 1.856996 12.269386 -12.126098 -10.986187 4.378073 -50.460871 2.982883 -17.311765 -5.017331 -74.622460 8.392253 0.000000 0.000000 0.000000 -3.318062 2.711192 12.288767 23.240014 11.476817 -2.845588 51.454008 -11.185559 4.785078 -6.523271 45.966453 -7.438935 0.000000 0.000000 0.000000 
-3.517733 24.192520 1.900019 -179.102805 0.809566 179.658058 1.619262 -8.006013 -2.079539 -1.318739 8.607009 -81.220744 13.389549 4.096454 87.671926 -6.981568 -6.246490 6.300415 0.000000 0.000000 0.000000 5.301892 -3.574812 -3.186868 -8.409494 -10.082558 -78.685787 -3.743972 1.177680 86.755410 1.213866 9.498810 6.284986 0.000000 0.000000 0.000000 2.090558 -2.055876 -0.575543 0.738294 -0.615198 1.202857 -1.595871 0.229685 13.595527 -0.144063 0.037999 -0.023480 -1.740051 1.341397 16.778870 -0.809273 1.208279 14.840796 0.000000 0.000000 0.000000 0.049861 1.924658 12.546183 -11.645082 -10.562386 4.486697 -50.455687 3.767575 -15.084780 -7.697550 -78.591824 11.103994 0.000000 0.000000 0.000000 -3.422817 2.889753 12.622138 23.649650 11.177742 -2.777172 51.503120 -13.136151 5.511158 -6.981344 47.006967 -7.677755 0.000000 0.000000 0.000000 
-3.391872 24.071327 2.153364 -179.044106 1.365031 179.650969 1.658051 -7.877542 -3.739861 -1.040410 9.557429 -80.413805 13.090823 3.745235 87.936445 -6.560817 -6.441249 6.923772 0.000000 0.000000 0.000000 5.263360 -3.309055 -4.733047 -7.718796 -9.505567 -77.652646 -3.889090 1.310353 86.515424 0.924343 9.171838 6.649210 0.000000 0.000000 0.000000 1.799872 -1.805921 -2.198270 0.631208 -0.786750 0.629826 -1.624815 0.194992 13.726506 -0.143171 0.011426 0.028274 -1.812087 1.318623 16.820705 -1.891134 1.680536 14.500435 0.000000 0.000000 0.000000 0.057973 1.779777 12.748024 -11.008630 -10.405978 4.555138 -49.445174 4.247617 -12.313483 -12.043690 -81.778961 15.551581 0.000000 0.000000 0.000000 -3.452764 2.807943 12.869171 24.041402 11.013193 -2.693077 51.449855 -14.464246 6.158510 -7.186080 48.735029 -7.792827 0.000000 0.000000 0.000000 
-3.223195 23.937674 2.467835 -179.264148 1.946198 179.740622 1.824914 -7.378156 -5.104649 -0.419685 10.270988 -79.715841 12.106857 3.033858 88.350409 -7.256993 -7.692284 7.099668 0.000000 0.000000 0.000000 5.105985 -2.941035 -6.043324 -6.676872 -9.262672 -77.127650 -4.031158 1.495583 86.049086 0.506946 8.844888 7.511387 0.000000 0.000000 0.000000 1.315904 -1.539564 -3.557242 0.505797 -1.109019 0.032645 -1.657674 0.039578 13.877242 -0.084432 -0.032309 -0.068239 -1.884875 1.274838 17.001201 -2.947234 2.118452 14.196351 0.000000 0.000000 0.000000 0.063420 1.689274 12.988547 -10.220511 -10.380078 4.456694 -47.552521 4.650554 -8.849425 -18.383505 -83.811858 22.068073 0.000000 0.000000 0.000000 -3.489684 2.743668 13.149231 24.299800 11.002117 -2.769836 51.173738 -15.303389 7.385339 -7.597839 51.037151 -8.228664 0.000000 0.000000 0.000000 
